<?xml version="1.0" encoding="utf-8"?>
<!-- Generator: Adobe Illustrator 18.0.0, SVG Export Plug-In . SVG Version: 6.00 Build 0)  -->
<!DOCTYPE svg PUBLIC "-//W3C//DTD SVG 1.1//EN" "http://www.w3.org/Graphics/SVG/1.1/DTD/svg11.dtd">
<svg version="1.1" id="Layer_1" xmlns="http://www.w3.org/2000/svg" xmlns:xlink="http://www.w3.org/1999/xlink" x="0px" y="0px"
	 viewBox="0 0 538 264" enable-background="new 0 0 538 264" xml:space="preserve">
<rect x="17.1" y="23" fill="#020203" stroke="#010202" stroke-miterlimit="10" width="20" height="20"/>
<rect x="17.1" y="43" fill="#020203" stroke="#010202" stroke-miterlimit="10" width="20" height="20"/>
<rect x="17.1" y="63" fill="#020203" stroke="#010202" stroke-miterlimit="10" width="20" height="20"/>
<rect x="17.1" y="83" fill="#020203" stroke="#010202" stroke-miterlimit="10" width="20" height="20"/>
<rect x="37.1" y="23" fill="#020203" stroke="#010202" stroke-miterlimit="10" width="20" height="20"/>
<rect x="57.1" y="23" fill="#020203" stroke="#010202" stroke-miterlimit="10" width="20" height="20"/>
<rect x="57.1" y="43" fill="#020203" stroke="#010202" stroke-miterlimit="10" width="20" height="20"/>
<rect x="37.1" y="63" fill="#020203" stroke="#010202" stroke-miterlimit="10" width="20" height="20"/>
<rect x="57.1" y="63" fill="#020203" stroke="#010202" stroke-miterlimit="10" width="20" height="20"/>
<rect x="17.1" y="103" fill="#020203" stroke="#010202" stroke-miterlimit="10" width="20" height="20"/>
<rect x="97.1" y="23" fill="#020203" stroke="#010202" stroke-miterlimit="10" width="20" height="20"/>
<rect x="97.1" y="43" fill="#020203" stroke="#010202" stroke-miterlimit="10" width="20" height="20"/>
<rect x="97.1" y="63" fill="#020203" stroke="#010202" stroke-miterlimit="10" width="20" height="20"/>
<rect x="97.1" y="83" fill="#020203" stroke="#010202" stroke-miterlimit="10" width="20" height="20"/>
<rect x="117.1" y="23" fill="#020203" stroke="#010202" stroke-miterlimit="10" width="20" height="20"/>
<rect x="137.1" y="23" fill="#020203" stroke="#010202" stroke-miterlimit="10" width="20" height="20"/>
<rect x="137.1" y="43" fill="#020203" stroke="#010202" stroke-miterlimit="10" width="20" height="20"/>
<rect x="117.1" y="63" fill="#020203" stroke="#010202" stroke-miterlimit="10" width="20" height="20"/>
<rect x="97.1" y="103" fill="#020203" stroke="#010202" stroke-miterlimit="10" width="20" height="20"/>
<rect x="137.1" y="83" fill="#020203" stroke="#010202" stroke-miterlimit="10" width="20" height="20"/>
<rect x="137.1" y="103" fill="#020203" stroke="#010202" stroke-miterlimit="10" width="20" height="20"/>
<rect x="177.1" y="23" fill="#020203" stroke="#010202" stroke-miterlimit="10" width="20" height="20"/>
<rect x="177.1" y="43" fill="#020203" stroke="#010202" stroke-miterlimit="10" width="20" height="20"/>
<rect x="177.1" y="63" fill="#020203" stroke="#010202" stroke-miterlimit="10" width="20" height="20"/>
<rect x="177.1" y="83" fill="#020203" stroke="#010202" stroke-miterlimit="10" width="20" height="20"/>
<rect x="197.1" y="23" fill="#020203" stroke="#010202" stroke-miterlimit="10" width="20" height="20"/>
<rect x="217.1" y="23" fill="#020203" stroke="#010202" stroke-miterlimit="10" width="20" height="20"/>
<rect x="217.1" y="63" fill="#020203" stroke="#010202" stroke-miterlimit="10" width="20" height="20"/>
<rect x="197.1" y="63" fill="#020203" stroke="#010202" stroke-miterlimit="10" width="20" height="20"/>
<rect x="177.1" y="103" fill="#020203" stroke="#010202" stroke-miterlimit="10" width="20" height="20"/>
<rect x="217.1" y="103" fill="#020203" stroke="#010202" stroke-miterlimit="10" width="20" height="20"/>
<rect x="197.1" y="103" fill="#020203" stroke="#010202" stroke-miterlimit="10" width="20" height="20"/>
<rect x="257.1" y="23" fill="#020203" stroke="#010202" stroke-miterlimit="10" width="20" height="20"/>
<rect x="257.1" y="43" fill="#020203" stroke="#010202" stroke-miterlimit="10" width="20" height="20"/>
<rect x="257.1" y="63" fill="#020203" stroke="#010202" stroke-miterlimit="10" width="20" height="20"/>
<rect x="257.1" y="83" fill="#020203" stroke="#010202" stroke-miterlimit="10" width="20" height="20"/>
<rect x="277.1" y="23" fill="#020203" stroke="#010202" stroke-miterlimit="10" width="20" height="20"/>
<rect x="297.1" y="23" fill="#020203" stroke="#010202" stroke-miterlimit="10" width="20" height="20"/>
<rect x="257.1" y="103" fill="#020203" stroke="#010202" stroke-miterlimit="10" width="20" height="20"/>
<rect x="297.1" y="103" fill="#020203" stroke="#010202" stroke-miterlimit="10" width="20" height="20"/>
<rect x="277.1" y="103" fill="#020203" stroke="#010202" stroke-miterlimit="10" width="20" height="20"/>
<rect x="337.1" y="23" fill="#020203" stroke="#010202" stroke-miterlimit="10" width="20" height="20"/>
<rect x="337.1" y="43" fill="#020203" stroke="#010202" stroke-miterlimit="10" width="20" height="20"/>
<rect x="337.1" y="63" fill="#020203" stroke="#010202" stroke-miterlimit="10" width="20" height="20"/>
<rect x="337.1" y="83" fill="#020203" stroke="#010202" stroke-miterlimit="10" width="20" height="20"/>
<rect x="337.1" y="103" fill="#020203" stroke="#010202" stroke-miterlimit="10" width="20" height="20"/>
<rect x="377.1" y="23" fill="#020203" stroke="#010202" stroke-miterlimit="10" width="20" height="20"/>
<rect x="377.1" y="43" fill="#020203" stroke="#010202" stroke-miterlimit="10" width="20" height="20"/>
<rect x="397.1" y="63" fill="#020203" stroke="#010202" stroke-miterlimit="10" width="20" height="20"/>
<rect x="417.1" y="63" fill="#020203" stroke="#010202" stroke-miterlimit="10" width="20" height="20"/>
<rect x="417.1" y="23" fill="#020203" stroke="#010202" stroke-miterlimit="10" width="20" height="20"/>
<rect x="397.1" y="103" fill="#020203" stroke="#010202" stroke-miterlimit="10" width="20" height="20"/>
<rect x="377.1" y="103" fill="#020203" stroke="#010202" stroke-miterlimit="10" width="20" height="20"/>
<rect x="397.1" y="23" fill="#020203" stroke="#010202" stroke-miterlimit="10" width="20" height="20"/>
<rect x="417.1" y="83" fill="#020203" stroke="#010202" stroke-miterlimit="10" width="20" height="20"/>
<rect x="377.1" y="63" fill="#020203" stroke="#010202" stroke-miterlimit="10" width="20" height="20"/>
<rect x="417.1" y="103" fill="#020203" stroke="#010202" stroke-miterlimit="10" width="20" height="20"/>
<rect x="457.1" y="23" fill="#020203" stroke="#010202" stroke-miterlimit="10" width="20" height="20"/>
<rect x="457.1" y="43" fill="#020203" stroke="#010202" stroke-miterlimit="10" width="20" height="20"/>
<rect x="457.1" y="63" fill="#020203" stroke="#010202" stroke-miterlimit="10" width="20" height="20"/>
<rect x="457.1" y="83" fill="#020203" stroke="#010202" stroke-miterlimit="10" width="20" height="20"/>
<rect x="477.1" y="23" fill="#020203" stroke="#010202" stroke-miterlimit="10" width="20" height="20"/>
<rect x="497.1" y="23" fill="#020203" stroke="#010202" stroke-miterlimit="10" width="20" height="20"/>
<rect x="497.1" y="63" fill="#020203" stroke="#010202" stroke-miterlimit="10" width="20" height="20"/>
<rect x="477.1" y="63" fill="#020203" stroke="#010202" stroke-miterlimit="10" width="20" height="20"/>
<rect x="457.1" y="103" fill="#020203" stroke="#010202" stroke-miterlimit="10" width="20" height="20"/>
<rect x="497.1" y="103" fill="#020203" stroke="#010202" stroke-miterlimit="10" width="20" height="20"/>
<rect x="477.1" y="103" fill="#020203" stroke="#010202" stroke-miterlimit="10" width="20" height="20"/>
<rect x="17.1" y="143" fill="#020203" stroke="#010202" stroke-miterlimit="10" width="20" height="20"/>
<rect x="17.1" y="163" fill="#020203" stroke="#010202" stroke-miterlimit="10" width="20" height="20"/>
<rect x="17.1" y="183" fill="#020203" stroke="#010202" stroke-miterlimit="10" width="20" height="20"/>
<rect x="17.1" y="203" fill="#020203" stroke="#010202" stroke-miterlimit="10" width="20" height="20"/>
<rect x="37.1" y="143" fill="#020203" stroke="#010202" stroke-miterlimit="10" width="20" height="20"/>
<rect x="57.1" y="143" fill="#020203" stroke="#010202" stroke-miterlimit="10" width="20" height="20"/>
<rect x="57.1" y="163" fill="#020203" stroke="#010202" stroke-miterlimit="10" width="20" height="20"/>
<rect x="37.1" y="183" fill="#020203" stroke="#010202" stroke-miterlimit="10" width="20" height="20"/>
<rect x="57.1" y="183" fill="#020203" stroke="#010202" stroke-miterlimit="10" width="20" height="20"/>
<rect x="17.1" y="223" fill="#020203" stroke="#010202" stroke-miterlimit="10" width="20" height="20"/>
<rect x="137.1" y="143" fill="#020203" stroke="#010202" stroke-miterlimit="10" width="20" height="20"/>
<rect x="137.1" y="163" fill="#020203" stroke="#010202" stroke-miterlimit="10" width="20" height="20"/>
<rect x="137.1" y="203" fill="#020203" stroke="#010202" stroke-miterlimit="10" width="20" height="20"/>
<rect x="177.1" y="143" fill="#020203" stroke="#010202" stroke-miterlimit="10" width="20" height="20"/>
<rect x="177.1" y="163" fill="#020203" stroke="#010202" stroke-miterlimit="10" width="20" height="20"/>
<rect x="157.1" y="183" fill="#020203" stroke="#010202" stroke-miterlimit="10" width="20" height="20"/>
<rect x="137.1" y="223" fill="#020203" stroke="#010202" stroke-miterlimit="10" width="20" height="20"/>
<rect x="177.1" y="203" fill="#020203" stroke="#010202" stroke-miterlimit="10" width="20" height="20"/>
<rect x="177.1" y="223" fill="#020203" stroke="#010202" stroke-miterlimit="10" width="20" height="20"/>
<rect x="177.1" y="203" fill="#020203" stroke="#010202" stroke-miterlimit="10" width="20" height="20"/>
<rect x="297.1" y="143" fill="#020203" stroke="#010202" stroke-miterlimit="10" width="20" height="20"/>
<rect x="297.1" y="163" fill="#020203" stroke="#010202" stroke-miterlimit="10" width="20" height="20"/>
<rect x="297.1" y="183" fill="#020203" stroke="#010202" stroke-miterlimit="10" width="20" height="20"/>
<rect x="297.1" y="203" fill="#020203" stroke="#010202" stroke-miterlimit="10" width="20" height="20"/>
<rect x="297.1" y="223" fill="#020203" stroke="#010202" stroke-miterlimit="10" width="20" height="20"/>
<rect x="337.1" y="223" fill="#020203" stroke="#010202" stroke-miterlimit="10" width="20" height="20"/>
<rect x="317.1" y="223" fill="#020203" stroke="#010202" stroke-miterlimit="10" width="20" height="20"/>
<rect x="97.1" y="143" fill="#020203" stroke="#010202" stroke-miterlimit="10" width="20" height="20"/>
<rect x="97.1" y="163" fill="#020203" stroke="#010202" stroke-miterlimit="10" width="20" height="20"/>
<rect x="97.1" y="183" fill="#020203" stroke="#010202" stroke-miterlimit="10" width="20" height="20"/>
<rect x="97.1" y="203" fill="#020203" stroke="#010202" stroke-miterlimit="10" width="20" height="20"/>
<rect x="97.1" y="223" fill="#020203" stroke="#010202" stroke-miterlimit="10" width="20" height="20"/>
<rect x="377.1" y="143" fill="#020203" stroke="#010202" stroke-miterlimit="10" width="20" height="20"/>
<rect x="377.1" y="163" fill="#020203" stroke="#010202" stroke-miterlimit="10" width="20" height="20"/>
<rect x="397.1" y="183" fill="#020203" stroke="#010202" stroke-miterlimit="10" width="20" height="20"/>
<rect x="417.1" y="183" fill="#020203" stroke="#010202" stroke-miterlimit="10" width="20" height="20"/>
<rect x="417.1" y="143" fill="#020203" stroke="#010202" stroke-miterlimit="10" width="20" height="20"/>
<rect x="397.1" y="223" fill="#020203" stroke="#010202" stroke-miterlimit="10" width="20" height="20"/>
<rect x="377.1" y="223" fill="#020203" stroke="#010202" stroke-miterlimit="10" width="20" height="20"/>
<rect x="397.1" y="143" fill="#020203" stroke="#010202" stroke-miterlimit="10" width="20" height="20"/>
<rect x="417.1" y="203" fill="#020203" stroke="#010202" stroke-miterlimit="10" width="20" height="20"/>
<rect x="377.1" y="183" fill="#020203" stroke="#010202" stroke-miterlimit="10" width="20" height="20"/>
<rect x="417.1" y="223" fill="#020203" stroke="#010202" stroke-miterlimit="10" width="20" height="20"/>
<rect x="217.1" y="143" fill="#020203" stroke="#010202" stroke-miterlimit="10" width="20" height="20"/>
<rect x="217.1" y="163" fill="#020203" stroke="#010202" stroke-miterlimit="10" width="20" height="20"/>
<rect x="217.1" y="183" fill="#020203" stroke="#010202" stroke-miterlimit="10" width="20" height="20"/>
<rect x="217.1" y="203" fill="#020203" stroke="#010202" stroke-miterlimit="10" width="20" height="20"/>
<rect x="237.1" y="143" fill="#020203" stroke="#010202" stroke-miterlimit="10" width="20" height="20"/>
<rect x="257.1" y="143" fill="#020203" stroke="#010202" stroke-miterlimit="10" width="20" height="20"/>
<rect x="257.1" y="183" fill="#020203" stroke="#010202" stroke-miterlimit="10" width="20" height="20"/>
<rect x="237.1" y="183" fill="#020203" stroke="#010202" stroke-miterlimit="10" width="20" height="20"/>
<rect x="217.1" y="223" fill="#020203" stroke="#010202" stroke-miterlimit="10" width="20" height="20"/>
<rect x="257.1" y="223" fill="#020203" stroke="#010202" stroke-miterlimit="10" width="20" height="20"/>
<rect x="237.1" y="223" fill="#020203" stroke="#010202" stroke-miterlimit="10" width="20" height="20"/>
</svg>
